<?xml version="1.0" encoding="utf-8"?>
<!-- Generator: Adobe Illustrator 24.0.1, SVG Export Plug-In . SVG Version: 6.00 Build 0)  -->
<svg version="1.1" id="Layer_1" xmlns="http://www.w3.org/2000/svg" xmlns:xlink="http://www.w3.org/1999/xlink" x="0px" y="0px"
	 width="370px" height="64px" viewBox="0 0 370 64" style="enable-background:new 0 0 370 64;" xml:space="preserve">
<style type="text/css">
	.st0{fill:#FFFFFF;}
	.st1{fill:#111110;}
	.st2{fill:#ADA48E;}
	.st3{fill:#111010;}
	.st4{fill:#FFC219;}
	.st5{fill:#282624;}
</style>
<g>
	<path class="st0" d="M93,46.7c-3.1,0.8-5.8,1.2-7.9,1.2c-4.5,0-8-1.2-10.3-3.7c-2.3-2.5-3.5-5.5-3.5-9.1c0-3.7,1.3-7,3.8-9.7
		c2.6-2.8,6.1-4.1,10.6-4.1c2.1,0,4,0.2,5.6,0.6l-0.7,4.7c-2.1-0.5-3.9-0.8-5.6-0.8c-2.8,0-4.9,0.9-6.2,2.6
		c-1.4,1.7-2.1,3.8-2.1,6.3c0,2.5,0.8,4.7,2.3,6.6c1.5,1.9,3.7,2.8,6.4,2.8c0.8,0,1.6-0.1,2.6-0.2c-0.2-1.5-0.3-2.9-0.3-4.3
		c0-1.4-0.1-3-0.4-4.8H93c-0.1,2-0.2,4.1-0.2,6.1C92.8,42.2,92.9,44.2,93,46.7z"/>
	<path class="st0" d="M116.2,37.5c0,3.3-1,5.9-3.1,7.8c-2,1.9-4.5,2.8-7.2,2.8c-2.6,0-4.9-0.9-6.8-2.6c-1.9-1.7-2.8-4.1-2.8-7.2
		c0-3.3,1-6,3.1-7.8c2.1-1.9,4.5-2.8,7.2-2.8c2.6,0,4.9,0.9,6.8,2.6C115.3,32,116.2,34.4,116.2,37.5z M111.1,38.1
		c0-1.9-0.4-3.5-1.3-4.8c-0.9-1.3-2.1-2-3.5-2c-1.4,0-2.5,0.6-3.4,1.8c-0.9,1.2-1.3,2.7-1.3,4.6c0,1.9,0.4,3.5,1.3,4.8
		c0.9,1.3,2.1,2,3.5,2c1.4,0,2.5-0.6,3.4-1.8C110.6,41.5,111.1,39.9,111.1,38.1z"/>
	<path class="st0" d="M125.7,47.4h-5.4c0.2-4.5,0.3-9.4,0.3-14.7c0-5.1-0.2-9.5-0.6-13.1l5.7-0.3c-0.2,3.7-0.3,8.2-0.3,13.4
		C125.4,38,125.5,42.9,125.7,47.4z"/>
	<path class="st0" d="M148.4,47.3l-4.7,0.2c-0.1-0.5-0.1-0.9-0.1-1.4h-0.3c-1.5,1.3-3.3,1.9-5.6,1.9c-2.5,0-4.5-0.9-6-2.8
		c-1.5-1.8-2.2-4-2.2-6.5c0-2.9,0.8-5.4,2.4-7.6c1.6-2.1,3.9-3.2,6.8-3.2c1.9,0,3.3,0.3,4.2,1h0.3c0-3.1-0.2-6.3-0.5-9.4l5.6-0.2
		c-0.2,3.1-0.3,7.5-0.3,13.3C148,38.5,148.1,43.4,148.4,47.3z M143.4,42.8c0-4.2-0.1-7.7-0.3-10.5c-0.9-0.6-2-1-3.3-1
		c-1.7,0-3,0.6-3.9,1.9c-0.8,1.3-1.3,2.9-1.3,4.8c0,1.7,0.4,3.1,1.2,4.3c0.8,1.2,2,1.8,3.4,1.8C141.3,44.3,142.6,43.8,143.4,42.8z"
		/>
	<path class="st0" d="M183,47.4h-5.8c0-2.2-0.1-6-0.4-11.4s-0.4-8.7-0.4-10h-0.3c-0.1,0.8-0.5,2.3-1,4.4c-0.6,2.1-1.6,5.3-3.2,9.5
		c-1.6,4.2-2.3,6.7-2.3,7.5h-4.4c0-0.8-0.7-3.4-2.2-7.5c-1.5-4.2-2.5-7.1-2.9-8.8c-0.5-1.7-0.8-3.3-1.1-5h-0.3
		c0,1.7-0.2,5.2-0.5,10.6s-0.5,9-0.5,10.7h-5.2c0-0.4,0.5-4.4,1.4-11.9c1-7.5,1.4-12.2,1.4-13.9h7.7c0,1.5,0.8,4.7,2.4,9.8
		c1.6,5,2.4,8.3,2.4,9.7h0.3c0-1.4,0.9-4.7,2.8-9.7c1.8-5,2.8-8.3,2.8-9.8h7.6c0,2.7,0.3,7.6,0.9,14.6C182.7,43.2,183,46.9,183,47.4
		z"/>
	<path class="st0" d="M193.2,47.4h-5.3c0.2-2.7,0.3-5.9,0.3-9.4c0-3.5-0.2-6.6-0.7-9.2l5.7-0.6c-0.2,2.6-0.3,5.8-0.3,9.8
		C192.9,41.3,193,44.5,193.2,47.4z M194.1,22.6c0,0.9-0.3,1.7-0.9,2.4c-0.6,0.7-1.5,1-2.6,1c-0.9,0-1.6-0.3-2.2-0.9
		c-0.5-0.6-0.8-1.3-0.8-2.1c0-0.9,0.3-1.7,0.9-2.3c0.6-0.7,1.5-1,2.6-1c0.9,0,1.7,0.3,2.2,0.9C193.9,21.1,194.1,21.8,194.1,22.6z"/>
	<path class="st0" d="M215.6,47.4h-5.3c0.3-3.3,0.4-6.7,0.4-10.1c0-2.1-0.3-3.5-0.9-4.2c-0.6-0.7-1.5-1.1-2.8-1.1
		c-1.5,0-2.9,0.5-4.3,1.5c0.1,5.1,0.1,9.8,0.1,13.9h-5.3c0.2-4.1,0.4-7.4,0.4-9.7c0-3.2-0.3-6.1-1-8.9l5.1-0.6l0.3,2.1h0.3
		c1.8-1.6,3.9-2.3,6.2-2.3c2,0,3.7,0.5,4.9,1.4c1.2,1,1.8,2.7,1.8,5.3c0,0.4,0,0.9,0,1.5c0,0.6,0,1.3,0,2
		C215.5,39.9,215.5,43,215.6,47.4z"/>
	<path class="st0" d="M225.6,47.4h-5.3c0.2-2.7,0.3-5.9,0.3-9.4c0-3.5-0.2-6.6-0.7-9.2l5.7-0.6c-0.2,2.6-0.3,5.8-0.3,9.8
		C225.3,41.3,225.4,44.5,225.6,47.4z M226.5,22.6c0,0.9-0.3,1.7-0.9,2.4c-0.6,0.7-1.5,1-2.6,1c-0.9,0-1.6-0.3-2.2-0.9
		c-0.5-0.6-0.8-1.3-0.8-2.1c0-0.9,0.3-1.7,0.9-2.3c0.6-0.7,1.5-1,2.6-1c0.9,0,1.7,0.3,2.2,0.9S226.5,21.8,226.5,22.6z"/>
	<path class="st0" d="M248,47.4h-5.3c0.3-3.3,0.4-6.7,0.4-10.1c0-2.1-0.3-3.5-0.9-4.2c-0.6-0.7-1.5-1.1-2.8-1.1
		c-1.5,0-2.9,0.5-4.3,1.5c0.1,5.1,0.1,9.8,0.1,13.9h-5.3c0.2-4.1,0.4-7.4,0.4-9.7c0-3.2-0.3-6.1-1-8.9l5.1-0.6l0.3,2.1h0.3
		c1.8-1.6,3.9-2.3,6.2-2.3c2,0,3.7,0.5,4.9,1.4c1.2,1,1.8,2.7,1.8,5.3c0,0.4,0,0.9,0,1.5c0,0.6,0,1.3,0,2
		C247.9,39.9,247.9,43,248,47.4z"/>
	<path class="st0" d="M272.2,25.8l-0.4,3.7c-2.1,0-3.3,0.3-3.9,0.9v0.3c0.8,1,1.2,2.1,1.2,3.3c0,1.9-0.7,3.5-2.1,4.8
		c-1.4,1.3-3.5,2-6.2,2c-1.3,0-2.4-0.1-3.3-0.3c-0.7,0.3-1,0.7-1,1.2c0,0.8,0.4,1.4,1.3,1.7c0.8,0.3,2.8,0.5,5.9,0.5
		c5.3,0,7.9,1.8,7.9,5.4c0,2.5-1.1,4.5-3.3,6c-2.2,1.5-4.9,2.2-8,2.2c-6.2,0-9.3-1.9-9.3-5.8c0-1.2,0.3-2.2,1-3.1
		c0.7-0.8,1.5-1.3,2.4-1.5v-0.3c-1.1-0.7-1.7-1.8-1.7-3.2c0-1.5,0.8-2.7,2.3-3.6v-0.3c-2.1-1.1-3.2-2.7-3.2-5c0-1.9,0.7-3.6,2.2-4.9
		s3.7-2,6.8-2c2.1,0,3.8,0.4,5.1,1.2h0.3c0.4-2.5,1.7-3.7,3.8-3.7C270.8,25.4,271.5,25.5,272.2,25.8z M266.5,50.8
		c0-1-0.4-1.7-1.1-2.1c-0.7-0.4-2-0.7-3.9-0.7c-1.5,0-3-0.1-4.5-0.2c-1.2,0.7-1.7,1.7-1.7,3.1c0,2.5,1.7,3.8,5.1,3.8
		c1.9,0,3.4-0.4,4.5-1.1C266,52.9,266.5,52,266.5,50.8z M264.2,34.5c0-1.2-0.4-2.1-1.1-2.7c-0.8-0.6-1.6-0.9-2.6-0.9
		s-1.9,0.3-2.6,0.9c-0.7,0.6-1.1,1.5-1.1,2.6c0,1.2,0.4,2.1,1.1,2.7c0.8,0.6,1.7,0.9,2.7,0.9c1,0,1.8-0.3,2.6-0.9
		C263.8,36.5,264.2,35.6,264.2,34.5z"/>
	<path class="st0" d="M281.1,43.9c0,1-0.3,1.8-1,2.5c-0.7,0.7-1.6,1.1-2.8,1.1c-1,0-1.8-0.3-2.3-1c-0.6-0.6-0.8-1.4-0.8-2.3
		c0-1,0.3-1.8,1-2.5c0.7-0.7,1.6-1.1,2.8-1.1c1,0,1.8,0.3,2.3,0.9C280.8,42.3,281.1,43,281.1,43.9z"/>
	<path class="st0" d="M302,21.6l-0.2,4.3c-4.1-0.2-7.8-0.3-11.2-0.3c0.2,2.3,0.3,4.8,0.3,7.5c2.5,0,5.4-0.1,8.7-0.2V37
		c-3.3-0.1-6.2-0.2-8.7-0.2c0,3.7,0.1,7.2,0.2,10.5h-5.5c0.2-4,0.3-8.5,0.3-13.5c0-4.8-0.1-8.9-0.3-12.3H302z"/>
	<path class="st0" d="M321,47.3l-4.7,0.2c-0.2-0.6-0.3-1.1-0.3-1.5h-0.3c-1.5,1.2-3.4,1.9-5.9,1.9c-1.7,0-3-0.5-4.1-1.4
		c-1.1-0.9-1.6-2.1-1.6-3.7c0-2,0.8-3.7,2.5-4.9c1.7-1.3,4.7-2,8.9-2c0-0.2,0-0.5,0-0.7c0-1.4-0.3-2.4-1-2.8
		c-0.7-0.5-1.9-0.7-3.8-0.7c-2,0-3.9,0.3-5.8,0.8l0.4-3.6c1.8-0.6,4.3-0.9,7.6-0.9c2.4,0,4.2,0.5,5.5,1.5c1.3,1,2,2.8,2,5.3
		c0,0.6,0,1.6-0.1,3c0,1.5-0.1,2.4-0.1,2.9C320.3,43.4,320.6,45.6,321,47.3z M315.7,43.2c-0.1-1.8-0.1-3.3-0.1-4.6
		c-4.5,0-6.8,1.1-6.8,3.4c0,1.6,1,2.4,3,2.4C313.4,44.4,314.7,44,315.7,43.2z"/>
	<path class="st0" d="M337.9,28.5l-1.1,4.6c-1-0.4-2-0.6-3-0.6c-1.9,0-3.2,0.9-3.8,2.6c0,5.3,0,9.3,0.1,12.2h-5.3
		c0.2-4,0.3-7.2,0.3-9.7c0-3.1-0.3-6.1-1-8.9l5.1-0.6c0.2,1.5,0.3,2.3,0.3,2.6h0.3c1.2-1.9,2.8-2.8,4.9-2.8
		C335.6,27.9,336.7,28.1,337.9,28.5z"/>
	<path class="st0" d="M369.8,47.4h-5.2c0.3-3.3,0.4-6.6,0.4-9.7c0-2.4-0.3-3.9-0.9-4.6c-0.6-0.7-1.6-1.1-2.9-1.1
		c-1.1,0-2.2,0.4-3.4,1.2c-0.1,1.7-0.1,3.1-0.1,4.4c0,2.2,0,5.5,0.1,9.9h-5.3c0.3-3.6,0.4-7.1,0.4-10.6c0-1.8-0.2-3-0.7-3.8
		c-0.5-0.8-1.5-1.1-3.1-1.1c-1.4,0-2.6,0.5-3.6,1.4c0.1,5.2,0.1,9.9,0.1,14h-5.3c0.2-4.1,0.4-7.4,0.4-9.7c0-3.1-0.3-6.1-1-8.9
		l5.1-0.6l0.3,2.1h0.3c1.7-1.6,3.7-2.3,5.8-2.3c2.7,0,4.6,0.8,5.7,2.3h0.3c2-1.6,3.9-2.3,5.8-2.3c2.2,0,3.9,0.5,5.1,1.5
		c1.1,1,1.7,2.7,1.7,5.3c0,0.3,0,0.7,0,1.4c0,0.7,0,1.2,0,1.4C369.7,39.7,369.7,43,369.8,47.4z"/>
</g>
<path class="st1" d="M62.4,21.4c-0.6-1.9-2.3-5.2-3.4-6.9C55.6,9.2,50.5,5,44.9,2.6C40.4,0.6,36.2-0.1,31.2,0
	c-7.9,0.2-15.2,3.3-21,8.8c-2.8,2.7-4.8,5.4-6.6,9c-4,8-4.4,17.5-1.2,25.8c0.6,1.6,1.4,3.1,2.2,4.6c0,0.1,0.1,0.1,0.1,0.2
	c0.1,0.1,0.1,0.2,0.2,0.3c0.8,1.4,1.8,2.7,2.8,3.9c2.7,3.2,6.1,5.9,9.9,7.9c4,2,7.7,3.1,12.6,3.5c1.1,0.1,4.8-0.1,6.3-0.3
	c7.9-1.1,15-5.2,20.1-11.1c0.8-0.9,1.5-1.9,2.2-2.9c0.1-0.2,0.2-0.3,0.3-0.5l0,0c0.1-0.1,0.2-0.2,0.2-0.4c0.1-0.2,0.2-0.4,0.3-0.6
	c0.1-0.1,0.1-0.2,0.2-0.3c1.5-2.6,2.6-5.4,3.3-8.3C64.8,33.6,64.5,27.3,62.4,21.4z M60.2,38.9c-0.5,2.2-1.3,4.3-2.3,6.3
	c0,0,0,0,0,0.1c-0.1,0.2-0.2,0.4-0.3,0.6c-0.2,0.3-0.4,0.6-0.5,0.9c-0.2,0.4-0.4,0.7-0.7,1.1c-0.1-0.1-0.1-0.1-0.2-0.2
	c-2.1-2-3.8-3-5-2.9c-1.3,0.2-2.6-0.7-4.3-2.7c-1.3-1.6-2.5-3.5-2.5-4.1c-0.2-0.7-0.5-1.7-0.9-2.4c-0.2-0.4,0.1-0.2,0.8,0.3
	c-1.3-1.2-2.3-2-2.6-2c-0.2,0-0.3,1.1,0,2.6c0.2,1,0.3,1.9,0.2,2.2c0.6,0.2,1.3,1.3,1.7,2.7c0.5,1.5,0.7,2.7,0.6,2.7
	c-0.2,0-1-1.2-1.9-2.7c-1.1-1.9-1.2-2.8-0.6-2.8c0,0,0,0,0,0c-0.4-0.5-2.1-2.8-4.1-5.5c-3.7-5-3.9-5.1-6.7-4.7
	c-4.2,0.7-8.3,4.2-10.5,9.1l-1.7,3.7c0.2,0.4,0.1,1.1-0.3,1.8c-1.1,2.1-1.5,2-1-0.5c0.2-1.1,0.7-1.8,1.1-1.6v-2.3
	c-0.1-3.5-0.8-3.8-2.9-1.6c-0.8,0.9-2.3,1.7-3.2,1.9c-0.8,0.1-1.7,0.8-2.3,1.7c0.1-0.1,0.3-0.1,0.6,0c0.6,0.2,1-0.2,0.9-0.7
	c-0.1-0.5,0.7-0.7,1.7-0.6c1.1,0.2,2.2-0.1,2.5-0.7c0.5-0.7,0.3-0.8-0.4-0.3c-0.7,0.4-0.9,0.3-0.5-0.3c0.8-1.3,2.1-0.3,2.1,1.6
	c0,2.9-0.8,3.8-2.9,3.5c-1.4-0.3-2,0.1-2.5,1.3c-0.4,1.2-2.9,2.8-3.9,2.7c-0.2-0.4-0.4-0.7-0.6-1.1C7,45.9,7,45.8,6.9,45.7
	c-0.6-1-1.1-2.1-1.5-3.2c-2.9-7.5-2.6-16,1-23.2c1.6-3.2,3.4-5.7,5.9-8.1c5.2-5,11.8-7.7,18.9-7.9c4.5-0.1,8.3,0.6,12.4,2.3
	c5,2.2,9.6,6,12.7,10.7c1,1.6,2.5,4.5,3.1,6.2C61.3,27.8,61.5,33.4,60.2,38.9z M28.6,41.7c0-0.3,0.8-1.5,1.9-2.5
	c1.7-1.7,1.7-2,0.9-6.1l-1-4.2l1.7,1.1c1,0.7,3.1,2.9,4.7,4.9c2.8,3.7,7.8,12,7.1,12c-0.2,0-1.3-1.1-2.6-2.5
	c-2.6-2.8-4.8-3.7-6.3-2.7C33.5,42.5,28.6,42.5,28.6,41.7z"/>
<path class="st2" d="M60.2,38.9c-0.5,2.2-1.3,4.3-2.3,6.3c-2-2.7-3.9-5.2-4.1-5.5c-0.2-0.2-1.1,0.1-2,0.7c-1.5,1-2.1,0.7-5.5-2.5
	c0,0,0,0,0,0c0,0-0.1-0.1-0.1-0.1c-0.7-0.6-1.4-1.3-2-1.8c0,0,0,0,0,0c-1.3-1.2-2.3-2-2.6-2c-0.2,0-0.3,1.1,0,2.6
	c0.2,1,0.3,1.9,0.2,2.2c0,0.1,0,0.1-0.1,0.1c0,0,0,0-0.1-0.1c-0.4-0.5-2.1-2.8-4.1-5.5c-3.7-5-3.9-5.1-6.7-4.7
	c-4.2,0.7-8.3,4.2-10.5,9.1l-1.7,3.7l-0.2,0.5v-3c-0.1-3.5-0.8-3.8-2.9-1.6c-0.8,0.9-2.3,1.7-3.2,1.9c-0.8,0.1-1.7,0.8-2.3,1.7h0
	c-0.1,0.1-0.1,0.2-0.2,0.2c-0.2,0.2-0.3,0.5-0.4,0.8c-0.4,1-1.5,2.6-2.5,4c-0.6-1-1.1-2.1-1.5-3.2c-2.9-7.5-2.6-16,1-23.2
	c1.6-3.2,3.4-5.7,5.9-8.1c5.2-5,11.8-7.7,18.9-7.9c4.5-0.1,8.3,0.6,12.4,2.3c5,2.2,9.6,6,12.7,10.7c1,1.6,2.5,4.5,3.1,6.2
	C61.3,27.8,61.5,33.4,60.2,38.9z"/>
<g id="layer101">
	<path class="st3" d="M17,39.6c0,2.9-0.8,3.8-2.9,3.5c-1.4-0.3-2,0.1-2.5,1.3c-0.4,1.2-2.9,2.8-3.9,2.7c-0.2-0.4-0.4-0.7-0.6-1.1
		C7,45.9,7,45.8,6.9,45.7c1.1-1.4,2.1-2.9,2.5-4c0.1-0.3,0.3-0.5,0.4-0.8c0.1-0.1,0.1-0.2,0.2-0.2h0c0.1-0.1,0.3-0.1,0.6,0
		c0.6,0.2,1-0.2,0.9-0.7c-0.1-0.5,0.7-0.7,1.7-0.6c1.1,0.2,2.2-0.1,2.5-0.7c0.5-0.7,0.3-0.8-0.4-0.3c-0.7,0.4-0.9,0.3-0.5-0.3
		C15.7,36.8,17,37.8,17,39.6z"/>
	<path class="st3" d="M18.3,43c-1.1,2.1-1.5,2-1-0.5c0.2-1.1,0.7-1.8,1.1-1.6v0.7l0.2-0.5C18.8,41.6,18.7,42.3,18.3,43z"/>
	<path class="st3" d="M36.7,34.8c2.8,3.7,7.8,12,7.1,12c-0.2,0-1.3-1.1-2.6-2.5c-2.6-2.8-4.8-3.7-6.3-2.7c-1.4,0.8-6.4,0.8-6.4,0
		c0-0.3,0.8-1.5,1.9-2.5c1.7-1.7,1.7-2,0.9-6.1l-1-4.2l1.7,1.1C33.1,30.6,35.2,32.8,36.7,34.8z"/>
	<path class="st3" d="M44.1,44.1c-0.2,0-1-1.2-1.9-2.7c-1.1-1.9-1.2-2.8-0.6-2.8c0,0,0,0,0,0c0,0,0.1,0.1,0.1,0.1
		c0,0.1,0.1,0,0.1-0.1c0.6,0.2,1.3,1.3,1.7,2.7C44,42.9,44.3,44.1,44.1,44.1z"/>
	<path class="st3" d="M57.9,45.1C57.9,45.1,57.8,45.2,57.9,45.1c-0.1,0.3-0.2,0.4-0.3,0.6c-0.2,0.3-0.4,0.6-0.5,0.9
		c-0.2,0.4-0.4,0.7-0.7,1.1c-0.1-0.1-0.1-0.1-0.2-0.2c-2.1-2-3.8-3-5-2.9c-1.3,0.2-2.6-0.7-4.3-2.7c-1.3-1.6-2.5-3.5-2.5-4.1
		c-0.2-0.7-0.5-1.7-0.9-2.4c-0.2-0.4,0.1-0.2,0.8,0.3c0,0,0,0,0,0c0.6,0.5,1.3,1.2,2,1.8c0,0,0.1,0.1,0.1,0.1c0,0,0,0,0,0
		c3.4,3.2,4.1,3.5,5.5,2.5c0.9-0.6,1.8-0.8,2-0.7C53.9,39.9,55.9,42.4,57.9,45.1z"/>
</g>
<g id="layer102">
	<path class="st4" d="M56.8,45c-0.3-0.7-1.4-0.5-2-1.3c-0.7-1.1-1.7-1.6-2.5-1.3c-1.6,0.6-3.9-0.2-3.4-1c0.2-0.3-1-1.9-2.7-3.6
		c0,0,0,0,0,0c-0.1-0.1-0.2-0.2-0.3-0.3c-0.7-0.7-1.4-1.3-1.8-1.6c0,0,0,0,0,0c-0.7-0.5-1-0.7-0.8-0.3c0.4,0.7,0.7,1.7,0.9,2.4
		c0.1,0.6,1.2,2.5,2.5,4.1c1.7,2,3,2.9,4.3,2.7c1.2-0.2,2.9,0.8,5,2.9c0.1,0.1,0.1,0.1,0.2,0.2c0.3-0.5,0.5-1.2,0.5-2
		C56.9,45.4,56.9,45.2,56.8,45z M46.4,40.3c-2-2.6-2-3.4,0-1.6c1.2,1.1,2.2,2.1,2.2,2.3C48.6,41.7,47,41.2,46.4,40.3z"/>
	<path class="st4" d="M17,39.6c0,2.9-0.8,3.8-2.9,3.5c-1.4-0.3-2,0.1-2.5,1.3c-0.4,1.2-2.9,2.8-3.9,2.7c-0.2-0.2-0.3-0.4-0.3-0.5
		c-0.1-0.7,1-1.6,1.6-1.5c0.2,0,0.3,0.2,0.4,0.1c0.1-0.1,0.1-0.4-0.1-1c-0.3-0.9-0.2-1.2,0.3-0.8c0.7,0.3,0.7-0.1,0.3-1.2
		c-0.2-0.6-0.2-1-0.1-1.3c0-0.1,0.1-0.2,0.2-0.2h0c0.1-0.1,0.3-0.1,0.6,0c0.6,0.2,1-0.2,0.9-0.7c-0.1-0.5,0.7-0.7,1.7-0.6
		c1.1,0.2,2.2-0.1,2.5-0.7c0.5-0.7,0.3-0.8-0.4-0.3c-0.7,0.4-0.9,0.3-0.5-0.3C15.7,36.8,17,37.8,17,39.6z"/>
	<path class="st4" d="M43.8,46.9c-0.2,0-1.3-1.1-2.6-2.5c-2.6-2.8-4.8-3.7-6.3-2.7c-1.4,0.8-6.4,0.8-6.4,0c0-0.3,0.8-1.5,1.9-2.5
		c1.7-1.7,1.7-2,0.9-6.1l-1-4.2l1.7,1.1c1,0.7,3.1,2.9,4.7,4.9C39.5,38.5,44.5,46.9,43.8,46.9z"/>
	<path class="st4" d="M18.3,43c-1.1,2.1-1.5,2-1-0.5c0.2-1.1,0.7-1.8,1.1-1.6c0.1,0.1,0.2,0.1,0.2,0.3C18.8,41.6,18.7,42.3,18.3,43z
		"/>
	<path class="st4" d="M44.1,44.1c-0.2,0-1-1.2-1.9-2.7c-1.1-1.9-1.2-2.8-0.6-2.8c0,0,0,0,0,0c0,0,0.1,0,0.2,0
		c0.6,0.2,1.3,1.3,1.7,2.7C44,42.9,44.3,44.1,44.1,44.1z"/>
	<path class="st5" d="M19.4,17.5c-1.4-0.7-2.8-1.4-4.3-1.9c-0.1,0-0.1-0.1-0.2-0.1c0,0,0-0.1,0-0.1c0,0,0-0.1,0-0.1l1.7-3.9
		c0-0.1,0.1-0.1,0.2-0.1c0.1,0,0.2,0,0.2,0l0.6,0.3c2.7,1.5,5.4,3.6,8.1,6.3c1.3,1.3,2.6,2.8,3.8,4.4c1.1,1.4,2,2.7,2.7,3.9
		c0.1,0.1,0,0.3-0.1,0.4c-0.3,0.2-0.8,0.5-0.8,0.5c-0.1,0.1-0.3,0.1-0.4-0.1c0,0-0.1-0.1-0.1-0.2c-0.1-0.1-0.2-0.3-0.3-0.4
		c-0.2-0.3-0.5-0.5-0.7-0.8c-0.6-0.6-1.2-1.3-1.9-1.9c-1.4-1.3-2.8-2.5-4.3-3.6c-0.1-0.1-0.2-0.2-0.3-0.2l-11,13.1
		c-0.6,0.7-1.6,0.8-2.3,0.2c-0.4-0.4-0.6-0.9-0.6-1.4c0-0.3,0.2-0.6,0.4-0.8l10.8-12.8C20.2,18,19.8,17.7,19.4,17.5z"/>
</g>
<g>
	<polygon class="st4" points="38.7,31.4 38.8,34.6 40.3,34.3 42.2,32.8 40.7,30.9 	"/>
	<polygon class="st4" points="51.1,34.1 51.3,31.7 50.1,30.8 47.6,32.2 49,34.6 	"/>
	<polygon class="st4" points="32.7,25.2 33.5,26.6 34.7,26.3 34.9,24.8 34.1,24.3 	"/>
	<polygon class="st4" points="31.6,19 33.3,18.8 33.7,17.8 32.2,16.3 30.8,17.7 	"/>
	<polygon class="st4" points="36.1,31.1 36.8,30.9 36.8,30.1 36.4,29.8 35.6,30.3 	"/>
	<polygon class="st4" points="25.1,31.1 25.5,30.3 25,29.8 24.3,30.2 24.2,30.6 	"/>
</g>
</svg>
