<?xml version="1.0" encoding="utf-8"?>
<!-- Generator: Adobe Illustrator 24.0.1, SVG Export Plug-In . SVG Version: 6.00 Build 0)  -->
<svg version="1.1" id="Layer_1" xmlns="http://www.w3.org/2000/svg" xmlns:xlink="http://www.w3.org/1999/xlink" x="0px" y="0px"
	 width="2900px" height="500px" viewBox="0 0 2900 500" style="enable-background:new 0 0 2900 500;" xml:space="preserve">
<style type="text/css">
	.st0{fill:#FFFFFF;}
	.st1{fill:#111110;}
	.st2{fill:#ADA48E;}
	.st3{fill:#111010;}
	.st4{fill:#FFC219;}
	.st5{fill:#282624;}
</style>
<g>
	<path class="st0" d="M724.5,364.7c-24.5,6.3-45.1,9.4-61.6,9.4c-35.5,0-62.4-9.7-80.7-29.2c-18.3-19.4-27.5-43-27.5-70.8
		c0-29.2,10-54.6,29.9-76.1c20-21.6,47.6-32.3,83-32.3c16.6,0,31.3,1.5,43.9,4.5l-5.1,36.5c-16.2-4.2-30.7-6.3-43.6-6.3
		c-21.8,0-38,6.7-48.7,20c-10.7,13.4-16.1,29.7-16.1,49c0,19.7,6,36.9,18,51.5c12,14.6,28.6,22,49.7,22c5.9,0,12.7-0.6,20.4-1.9
		c-1.5-11.4-2.3-22.7-2.3-33.7c0-11.1-1.1-23.7-3.2-37.6h43.8c-0.8,15.9-1.2,31.9-1.2,48C723.3,329.4,723.7,345,724.5,364.7z"/>
	<path class="st0" d="M906.2,293.1c0,26-8,46.3-24,61c-16,14.6-34.8,22-56.5,22c-20.6,0-38.3-6.7-53.1-20
		c-14.8-13.4-22.1-32.2-22.1-56.4c0-26.1,8-46.5,24.1-61.3c16.1-14.7,35-22.1,56.6-22.1c20.5,0,38.1,6.7,52.8,20.2
		C898.8,249.9,906.2,268.8,906.2,293.1z M865.8,297.8c0-15-3.5-27.5-10.5-37.7c-7-10.2-16.1-15.2-27.4-15.2
		c-10.9,0-19.8,4.7-26.7,14.2c-6.9,9.5-10.3,21.4-10.3,35.6c0,15,3.5,27.5,10.5,37.7c7,10.2,16.1,15.2,27.4,15.2
		c10.9,0,19.8-4.7,26.7-14.2C862.4,323.9,865.8,312,865.8,297.8z"/>
	<path class="st0" d="M980.3,370H938c1.5-35.4,2.3-73.7,2.3-115c0-40.2-1.6-74.4-4.8-102.6l44.7-2.5c-1.5,29.2-2.3,64.2-2.3,105.1
		C978,296.5,978.7,334.8,980.3,370z"/>
	<path class="st0" d="M1157.4,369.9l-36.7,1.2c-0.7-3.6-1.1-7.4-1.1-11.3h-2.3c-11.3,9.8-25.8,14.7-43.5,14.7
		c-19.8,0-35.5-7.2-47.2-21.5c-11.7-14.3-17.5-31.4-17.5-51.1c0-22.6,6.3-42.3,19-59c12.7-16.8,30.3-25.1,52.9-25.1
		c14.6,0,25.6,2.7,33,8.2h2.2c0-24.3-1.2-48.8-3.6-73.5l43.8-1.2c-1.7,24-2.5,58.6-2.5,103.7C1154,300.6,1155.2,338.9,1157.4,369.9z
		 M1118.6,334.7c0-32.9-0.8-60.1-2.3-81.7c-7.1-5-15.6-7.4-25.5-7.4c-13.6,0-23.7,5.1-30.3,15.2c-6.6,10.1-9.9,22.5-9.9,37.1
		c0,13,3.2,24.2,9.6,33.7c6.4,9.4,15.3,14.2,26.6,14.2C1101.9,345.7,1112.5,342.1,1118.6,334.7z"/>
	<path class="st0" d="M1427.7,370h-45c0-17.5-1.1-47.1-3.2-88.7c-2.2-41.6-3.3-67.6-3.4-77.9h-2.3c-1,6.2-3.8,17.6-8.2,34.3
		c-4.4,16.7-12.8,41.3-25,73.9c-12.2,32.5-18.3,52-18.3,58.4H1288c0-6.6-5.9-26.2-17.6-58.9c-11.7-32.7-19.4-55.6-23-68.7
		c-3.6-13.1-6.5-26.1-8.7-39h-2.3c-0.1,12.9-1.4,40.5-3.8,82.9c-2.4,42.4-3.6,70.3-3.6,83.7h-40.8c0-3.1,3.7-34.1,11.2-93
		c7.5-58.9,11.2-95,11.2-108.5h59.9c0,11.6,6.3,37,19,76.4c12.6,39.4,19,64.6,19,75.7h2.3c0-11.1,7.2-36.4,21.6-75.8
		c14.4-39.4,21.6-64.8,21.6-76.3h59.4c0,21.4,2.4,59.4,7.2,114.3C1425.3,337.6,1427.7,366.7,1427.7,370z"/>
	<path class="st0" d="M1507.7,370h-41.6c1.4-21.4,2.2-45.8,2.2-73.5c0-27.4-1.8-51.5-5.3-72.1l44.6-4.5c-1.3,20-2,45.5-2,76.6
		C1505.5,323,1506.3,347.5,1507.7,370z M1514.8,176.3c0,7-2.4,13.2-7.2,18.4c-4.8,5.3-11.5,7.9-20,7.9c-7.2,0-12.9-2.3-16.9-6.8
		c-4.1-4.5-6.1-10-6.1-16.4c0-7,2.4-13.1,7.2-18.3c4.8-5.2,11.5-7.7,20.2-7.7c7.3,0,13,2.2,16.9,6.7S1514.8,170,1514.8,176.3z"/>
	<path class="st0" d="M1682.5,370h-41.2c2.3-26.1,3.4-52.5,3.4-79.2c0-16.2-2.4-27.2-7.2-33c-4.8-5.8-12.1-8.7-21.9-8.7
		c-11.8,0-22.9,4-33.4,12.1c0.5,40.2,0.8,76.5,0.8,108.8h-41.6c1.9-32.3,2.8-57.7,2.8-76.1c0-24.7-2.5-47.9-7.6-69.8l39.6-4.3
		l2.6,16.4h2.5c14.1-12.2,30.4-18.3,48.7-18.3c15.9,0,28.6,3.7,38.1,11.2c9.5,7.5,14.3,21.3,14.3,41.4c0,3-0.1,7-0.4,12
		c-0.3,5-0.4,10.1-0.4,15.4C1681.8,311.8,1682,335.9,1682.5,370z"/>
	<path class="st0" d="M1760.8,370h-41.6c1.4-21.4,2.2-45.8,2.2-73.5c0-27.4-1.8-51.5-5.3-72.1l44.6-4.5c-1.3,20-2,45.5-2,76.6
		C1758.7,323,1759.4,347.5,1760.8,370z M1768,176.3c0,7-2.4,13.2-7.2,18.4c-4.8,5.3-11.5,7.9-20,7.9c-7.2,0-12.9-2.3-16.9-6.8
		c-4.1-4.5-6.1-10-6.1-16.4c0-7,2.4-13.1,7.2-18.3c4.8-5.2,11.5-7.7,20.2-7.7c7.3,0,13,2.2,16.9,6.7S1768,170,1768,176.3z"/>
	<path class="st0" d="M1935.7,370h-41.2c2.3-26.1,3.4-52.5,3.4-79.2c0-16.2-2.4-27.2-7.2-33c-4.8-5.8-12.1-8.7-21.9-8.7
		c-11.8,0-22.9,4-33.4,12.1c0.5,40.2,0.8,76.5,0.8,108.8h-41.6c1.9-32.3,2.8-57.7,2.8-76.1c0-24.7-2.5-47.9-7.6-69.8l39.6-4.3
		l2.6,16.4h2.5c14.1-12.2,30.4-18.3,48.7-18.3c15.9,0,28.6,3.7,38.1,11.2c9.5,7.5,14.3,21.3,14.3,41.4c0,3-0.1,7-0.4,12
		c-0.3,5-0.4,10.1-0.4,15.4C1934.9,311.8,1935.1,335.9,1935.7,370z"/>
	<path class="st0" d="M2124.4,201.7l-3.4,28.8c-16.1,0-26.1,2.3-30.2,7v2c6.1,7.7,9.1,16.4,9.1,26c0,14.8-5.4,27.3-16.3,37.8
		c-10.9,10.4-27.1,15.6-48.7,15.6c-10.5,0-19.1-0.8-25.8-2.5c-5.5,2.5-8.2,5.7-8.2,9.7c0,6.3,3.3,10.7,9.8,13.2
		c6.6,2.5,21.8,3.8,45.7,3.8c41.4,0,62,14.1,62,42.2c0,19.8-8.6,35.5-25.8,47.2c-17.2,11.7-38.2,17.5-62.8,17.5
		c-48.3,0-72.4-15.2-72.4-45.5c0-9.4,2.7-17.4,8.1-23.9c5.4-6.6,11.7-10.5,18.8-12v-2.3c-8.7-5.5-13-13.8-13-25.1
		c0-11.3,5.9-20.8,17.8-28.5v-2.2c-16.7-8.4-25.1-21.4-25.1-39.1c0-15.2,5.7-27.8,17.3-38.1c11.5-10.2,29.3-15.3,53.3-15.3
		c16.4,0,29.7,3.1,39.9,9.3h2.2c3-19.5,13-29.2,30-29.2C2113.5,198.1,2119.4,199.3,2124.4,201.7z M2080.3,396.8
		c0-7.6-2.9-13.2-8.7-16.6c-5.8-3.4-15.9-5.1-30.1-5.1c-11.6,0-23.2-0.5-35-1.5c-9.1,5.4-13.6,13.4-13.6,24
		c0,19.8,13.2,29.7,39.6,29.7c14.7,0,26.4-2.8,35-8.4C2076,413.3,2080.3,406,2080.3,396.8z M2062.1,269.4c0-9.3-3-16.3-9-21.2
		c-6-4.8-12.8-7.3-20.6-7.3s-14.5,2.3-20.3,7c-5.8,4.7-8.7,11.6-8.7,20.7c0,9.2,3,16.1,9,20.9c6,4.7,12.9,7.1,20.9,7.1
		c7.5,0,14.2-2.3,20-6.9C2059.2,285.2,2062.1,278.4,2062.1,269.4z"/>
	<path class="st0" d="M2193.9,343.1c0,7.5-2.6,14.2-7.8,19.9c-5.2,5.7-12.4,8.6-21.6,8.6c-7.7,0-13.8-2.5-18.1-7.4
		c-4.3-5-6.5-10.9-6.5-17.8c0-7.5,2.6-14.1,7.8-19.6c5.2-5.5,12.5-8.3,21.7-8.3c7.8,0,13.9,2.4,18.1,7.2
		C2191.8,330.5,2193.9,336.3,2193.9,343.1z"/>
	<path class="st0" d="M2357.6,168.6l-1.4,33.9c-32.2-1.6-61.3-2.5-87.4-2.5c1.3,17.6,2,37.2,2,58.6c19.9,0,42.5-0.5,67.8-1.5v32
		c-25.6-0.9-48.2-1.4-67.8-1.4c0,29.2,0.5,56.6,1.4,82.3h-42.7c1.3-31.1,2-66.3,2-105.4c0-37.5-0.7-69.6-2-96.1H2357.6z"/>
	<path class="st0" d="M2505.8,369.9l-36.5,1.2c-1.7-4.3-2.5-8.3-2.5-11.8h-2c-11.3,9.7-26.7,14.5-46,14.5
		c-12.9,0-23.6-3.6-32.1-10.8c-8.5-7.2-12.8-16.7-12.8-28.5c0-15.7,6.6-28.5,19.9-38.5c13.3-10,36.5-15.3,69.7-15.9
		c0.2-1.9,0.3-3.6,0.3-5.3c0-11.1-2.7-18.5-8-22c-5.4-3.6-15.2-5.3-29.6-5.3c-15.6,0-30.8,2.1-45.6,6.2l3.4-28.5
		c14-4.8,33.8-7.3,59.4-7.3c18.7,0,33.1,3.9,43.2,11.8c10.2,7.8,15.2,21.6,15.2,41.2c0,4.3-0.2,12.2-0.5,23.7
		c-0.4,11.4-0.5,19.1-0.5,22.9C2500.9,338.8,2502.5,356.2,2505.8,369.9z M2464.5,337.7c-0.6-13.9-0.9-25.9-0.9-36
		c-35.2,0-52.8,8.9-52.8,26.8c0,12.3,7.7,18.4,23.2,18.4C2446.2,346.8,2456.3,343.8,2464.5,337.7z"/>
	<path class="st0" d="M2637.6,223l-9,36.2c-7.6-3.1-15.4-4.6-23.2-4.6c-15.2,0-25.2,6.8-30,20.4c0,41.2,0.3,72.8,0.9,95h-41.2
		c1.8-31,2.6-56.4,2.6-76.1c0-24.5-2.6-47.8-7.7-69.8l39.5-4.3c1.8,11.3,2.6,18,2.6,20h2.5c9.5-14.5,22.1-21.8,37.9-21.8
		C2620,217.9,2628.3,219.6,2637.6,223z"/>
	<path class="st0" d="M2886.9,370h-41c2.2-26.1,3.2-51.5,3.2-76.1c0-18.5-2.4-30.5-7.1-36.2c-4.7-5.7-12.3-8.5-22.7-8.5
		c-8.4,0-17.2,3-26.5,9.1c-0.4,12.9-0.6,24.4-0.6,34.7c0,17.2,0.3,42.9,0.9,77.1h-41.5c2.3-28.3,3.4-55.7,3.4-82.5
		c0-13.8-1.9-23.7-5.8-29.6c-3.9-5.9-11.9-8.8-24.1-8.8c-11.2,0-20.6,3.8-28,11.3c0.5,40.8,0.8,77.4,0.8,109.5h-41.6
		c1.9-32.2,2.8-57.6,2.8-76.1c0-24.1-2.5-47.4-7.6-69.8l39.6-4.3l2.6,16.4h2.5c13.4-12.2,28.5-18.3,45.3-18.3
		c21,0,35.8,6.1,44.4,18.3h2.5c15.3-12.2,30.4-18.3,45.3-18.3c17.5,0,30.8,3.8,39.7,11.4c8.9,7.6,13.4,21.3,13.4,41.2
		c0,2-0.1,5.7-0.3,11.2c-0.2,5.5-0.3,9.3-0.3,11.2C2886.3,310.2,2886.5,335.9,2886.9,370z"/>
</g>
<path class="st1" d="M486,166.9c-5-14.6-17.9-40.5-26.9-54c-27-40.8-66.2-73.9-109.9-92.6C313.8,5.1,281-1,241.8,0.1
	C179.7,2,122.8,25.8,77.5,69C55.7,89.8,39.9,111.2,26,139.3c-31.2,62.6-34.5,136.3-9,201.4c4.9,12.4,10.7,24.5,17.5,35.9
	c0.3,0.5,0.6,1,0.9,1.5c0.4,0.7,0.8,1.4,1.3,2.1c6.6,10.8,14.1,21.1,22.2,30.7c21.4,25.3,47.8,46.5,77.5,61.6
	c31,15.9,60.3,24,98.3,27.2c8.9,0.8,37.6-0.4,49.6-2.1c62-8.5,117.5-40.4,156.7-86.7c6.1-7.3,11.9-14.9,17.2-22.8
	c0.9-1.3,1.7-2.6,2.5-3.9l0,0c0.6-0.9,1.2-1.9,1.8-2.8c0.9-1.5,1.8-2.9,2.7-4.4c0.5-0.8,1-1.6,1.4-2.4c11.6-20,20.5-41.8,26.2-64.9
	C504.3,262.5,502,213.7,486,166.9z M468.6,303.6c-4.2,17.2-10.4,33.5-18.3,48.9c-0.1,0.2-0.2,0.3-0.3,0.5c-0.8,1.5-1.6,3-2.4,4.5
	c-1.4,2.5-2.8,5-4.2,7.4c-1.7,2.8-3.5,5.6-5.3,8.4c-0.5-0.5-1.1-1-1.7-1.6c-16.6-16-29.4-23.6-38.9-22.3
	c-10.2,1.3-20.4-5.1-33.8-21.1c-10.2-12.8-19.2-27.5-19.8-31.9c-1.3-5.1-3.8-13.4-7-18.5c-1.9-3,0.7-1.8,6,2.5
	c-10.4-9-18.3-15.3-20.1-15.3c-1.9,0-2.6,8.9,0,20.4c1.4,8,2.1,14.7,1.9,16.8c4.3,1.5,9.9,10.4,13.4,21.5
	c3.8,11.5,5.7,21.1,4.5,21.1c-1.3,0-7.7-9.6-14.7-21.1c-8.3-14.7-9.6-21.7-4.5-21.7c0,0,0,0,0.1,0c-3.1-3.8-16.7-22.2-32-42.8
	c-28.7-38.9-30.6-40.2-52.4-37c-32.6,5.7-65.1,33.2-82.4,70.9l-13,28.9c1.3,3.1,0.7,8.5-2.3,13.9c-8.9,16.6-11.5,15.3-7.7-3.8
	c1.3-8.9,5.1-14,8.3-12.1v-17.9c-0.6-27.5-6.4-30-22.3-12.1c-6.4,7-17.9,13.4-24.9,14.7c-6.1,0.9-13,6.1-18.2,13
	c0.9-0.6,2.4-0.7,4.3-0.3c4.5,1.3,7.7-1.3,7-5.1c-0.6-3.8,5.1-5.7,13.4-4.5c8.3,1.9,17.2-0.6,19.8-5.1c3.8-5.1,2.6-6.4-3.2-2.6
	c-5.7,3.2-7,2.6-3.8-2.6c6.4-10.2,16.6-2.6,16.6,12.1c0,22.3-6.4,30-22.3,27.5c-10.9-2.6-16,0.6-19.2,10.2
	c-2.7,9.3-22.9,21.9-30.5,20.9c-1.7-2.7-3.4-5.5-5-8.3c-0.6-1.1-1.2-2.2-1.8-3.3c-4.4-8.1-8.3-16.4-11.6-25
	c-22.9-58.6-20-124.9,8.1-181.3c12.5-25.3,26.7-44.6,46.4-63.3c40.8-38.9,92-60.3,147.8-61.9c35.3-1.1,64.9,4.4,96.7,18.1
	c39.3,16.9,74.6,46.6,98.9,83.4c8.1,12.2,19.7,35.5,24.2,48.6C476.8,217.3,478.9,261.3,468.6,303.6z M221.2,325.9
	c0-2.6,6.4-11.5,14.7-19.8c13.4-13.4,13.4-16,7-47.9l-7.7-33.2l13.4,8.9c7.7,5.1,24.3,22.3,36.4,38.3c21.7,28.7,60.7,93.9,55.6,93.9
	c-1.3,0-10.2-8.3-20.4-19.2c-20.4-21.7-37.7-28.7-49.2-21.1C260.2,332.3,221.2,332.3,221.2,325.9z"/>
<path class="st2" d="M468.6,303.6c-4.2,17.2-10.4,33.5-18.3,48.9c-15.7-20.9-30.7-40.8-32.3-42.8c-1.3-1.3-8.3,0.6-15.3,5.1
	c-11.4,7.6-16.5,5.2-43-19.5c0,0,0,0,0,0c-0.3-0.3-0.7-0.6-1-0.9c-5.5-5.1-10.8-9.9-15.7-14.1c0,0,0,0,0,0
	c-10.4-9-18.3-15.3-20.1-15.3c-1.9,0-2.6,8.9,0,20.4c1.4,8,2.1,14.7,1.9,16.8c-0.1,0.7-0.3,0.9-0.6,0.4c-0.1-0.1-0.3-0.3-0.6-0.7
	c-3.1-3.8-16.7-22.2-32-42.8c-28.7-38.9-30.6-40.2-52.4-37c-32.6,5.7-65.1,33.2-82.4,70.9l-13,28.9l-1.7,3.7v-23.6
	c-0.6-27.5-6.4-30-22.3-12.1c-6.4,7-17.9,13.4-24.9,14.7c-6.1,0.9-13,6.1-18.2,13h0c-0.5,0.6-0.9,1.2-1.3,1.9c-1.3,2-2.5,4-3.5,6.2
	c-3.3,8-11.5,20.2-19.9,30.9c-4.4-8.1-8.3-16.4-11.6-25c-22.9-58.6-20-124.9,8.1-181.3c12.5-25.3,26.7-44.6,46.4-63.3
	c40.8-38.9,92-60.3,147.8-61.9c35.3-1.1,64.9,4.4,96.7,18.1c39.3,16.9,74.6,46.6,98.9,83.4c8.1,12.2,19.7,35.5,24.2,48.6
	C476.8,217.3,478.9,261.3,468.6,303.6z"/>
<g id="layer101">
	<path class="st3" d="M130.8,309.8c0,22.3-6.4,30-22.3,27.5c-10.9-2.6-16,0.6-19.2,10.2c-2.7,9.3-22.9,21.9-30.5,20.9
		c-1.7-2.7-3.4-5.5-5-8.3c-0.6-1.1-1.2-2.2-1.8-3.3c8.4-10.7,16.6-22.9,19.9-30.9c1-2.1,2.2-4.2,3.5-6.2c0.4-0.6,0.9-1.3,1.3-1.9h0
		c0.9-0.6,2.4-0.7,4.3-0.3c4.5,1.3,7.7-1.3,7-5.1c-0.6-3.8,5.1-5.7,13.4-4.5c8.3,1.9,17.2-0.6,19.8-5.1c3.8-5.1,2.6-6.4-3.2-2.6
		c-5.7,3.2-7,2.6-3.8-2.6C120.6,287.4,130.8,295.1,130.8,309.8z"/>
	<path class="st3" d="M141.4,335.9c-8.9,16.6-11.5,15.3-7.7-3.8c1.3-8.9,5.1-14,8.3-12.1v5.7l1.7-3.7
		C145.1,325.1,144.4,330.5,141.4,335.9z"/>
	<path class="st3" d="M285.1,272.3c21.7,28.7,60.7,93.9,55.6,93.9c-1.3,0-10.2-8.3-20.4-19.2c-20.4-21.7-37.7-28.7-49.2-21.1
		c-10.9,6.4-49.8,6.4-49.8,0c0-2.6,6.4-11.5,14.7-19.8c13.4-13.4,13.4-16,7-47.9l-7.7-33.2l13.4,8.9
		C256.3,239.1,272.9,256.3,285.1,272.3z"/>
	<path class="st3" d="M342.6,344.9c-1.3,0-7.7-9.6-14.7-21.1c-8.3-14.7-9.6-21.7-4.5-21.7c0,0,0,0,0.1,0c0.3,0.3,0.5,0.6,0.6,0.7
		c0.3,0.5,0.5,0.3,0.6-0.4c4.3,1.5,9.9,10.4,13.4,21.5C341.9,335.3,343.8,344.9,342.6,344.9z"/>
	<path class="st3" d="M450.2,352.5c-0.1,0.2-0.2,0.3-0.3,0.5c-0.8,1.5-1.6,3-2.4,4.5c-1.4,2.5-2.8,5-4.2,7.4
		c-1.7,2.8-3.5,5.6-5.3,8.4c-0.5-0.5-1.1-1-1.7-1.6c-16.6-16-29.4-23.6-38.9-22.3c-10.2,1.3-20.4-5.1-33.8-21.1
		c-10.2-12.8-19.2-27.5-19.8-31.9c-1.3-5.1-3.8-13.4-7-18.5c-1.9-3,0.7-1.8,6,2.5c0,0,0,0,0,0c4.8,4.2,10.2,9,15.7,14.1
		c0.3,0.3,0.7,0.6,1,0.9c0,0,0,0,0,0c26.6,24.7,31.7,27.1,43,19.5c7-4.5,14-6.4,15.3-5.1C419.6,311.8,434.5,331.6,450.2,352.5z"/>
</g>
<g id="layer102">
	<path class="st4" d="M441.5,351.3c-2.2-5.4-10.8-3.6-15.3-10.2c-5.7-8.3-13.4-12.1-19.2-10.2c-12.1,4.5-30.6-1.3-26.2-7.7
		c1.2-2.4-7.9-14.6-21.3-27.8c0,0,0,0,0,0c-0.7-0.7-1.5-1.5-2.3-2.2c-5.7-5.5-10.7-9.9-14.4-12.8c0,0,0,0,0,0
		c-5.3-4.3-7.9-5.5-6-2.5c3.2,5.1,5.7,13.4,7,18.5c0.6,4.5,9.6,19.2,19.8,31.9c13.4,16,23.6,22.3,33.8,21.1
		c9.6-1.3,22.3,6.4,38.9,22.3c0.6,0.5,1.1,1.1,1.7,1.6c2-3.8,4.1-9.2,4.2-15.8C442.3,354.9,442.3,353.2,441.5,351.3z M360.4,314.9
		c-15.3-20.4-15.3-26.2,0-12.1c9.6,8.9,17.2,16.6,17.2,17.9C377.7,325.7,365.5,321.9,360.4,314.9z"/>
	<path class="st4" d="M130.8,309.8c0,22.3-6.4,30-22.3,27.5c-10.9-2.6-16,0.6-19.2,10.2c-2.7,9.3-22.9,21.9-30.5,20.9
		c-1.9-1.7-2.4-3.3-2.5-4.1c-0.9-5.8,7.5-12.8,12.6-11.6c1.5,0.3,2.4,1.2,3.1,0.8c1.1-0.7,1-3.4-0.6-7.8c-2.6-7-1.9-9.6,2.6-6.4
		c5.1,2.6,5.7-0.6,2.6-9.6c-1.2-4.7-1.7-8-1.2-10c0.2-0.9,0.7-1.5,1.3-1.9h0c0.9-0.6,2.4-0.7,4.3-0.3c4.5,1.3,7.7-1.3,7-5.1
		c-0.6-3.8,5.1-5.7,13.4-4.5c8.3,1.9,17.2-0.6,19.8-5.1c3.8-5.1,2.6-6.4-3.2-2.6c-5.7,3.2-7,2.6-3.8-2.6
		C120.6,287.4,130.8,295.1,130.8,309.8z"/>
	<path class="st4" d="M340.6,366.1c-1.3,0-10.2-8.3-20.4-19.2c-20.4-21.7-37.7-28.7-49.2-21.1c-10.9,6.4-49.8,6.4-49.8,0
		c0-2.6,6.4-11.5,14.7-19.8c13.4-13.4,13.4-16,7-47.9l-7.7-33.2l13.4,8.9c7.7,5.1,24.3,22.3,36.4,38.3
		C306.8,301,345.7,366.1,340.6,366.1z"/>
	<path class="st4" d="M141.4,335.9c-8.9,16.6-11.5,15.3-7.7-3.8c1.3-8.9,5.1-14,8.3-12.1c0.7,0.4,1.3,1.1,1.7,2
		C145.1,325.1,144.4,330.5,141.4,335.9z"/>
	<path class="st4" d="M342.6,344.9c-1.3,0-7.7-9.6-14.7-21.1c-8.3-14.7-9.6-21.7-4.5-21.7c0,0,0,0,0.1,0c0.4,0,0.8,0.1,1.2,0.2
		c4.3,1.5,9.9,10.4,13.4,21.5C341.9,335.3,343.8,344.9,342.6,344.9z"/>
	<path class="st5" d="M149.7,137c-10.8-5.8-21.9-10.7-33.7-14.8c-0.6-0.2-1-0.6-1.2-1.1c-0.1-0.3-0.2-0.7-0.2-1
		c0-0.2,0.1-0.4,0.2-0.6l13.4-30.2c0.2-0.5,0.7-0.9,1.2-1.1c0.6-0.2,1.2-0.1,1.7,0.2l4.4,2.4c21.4,11.6,42.2,27.8,63.4,49.3
		c10.1,10.2,20.1,21.7,29.6,34.1c8.4,10.8,15.3,20.8,21.2,30.4c0.6,0.9,0.3,2.1-0.6,2.8c-2,1.3-6.1,4.1-6.1,4.1
		c-0.9,0.6-2.1,0.4-2.8-0.4c0,0-0.8-1-1.1-1.3c-0.9-1-1.8-2-2.7-3c-1.8-2-3.6-3.9-5.6-6.1c-4.6-4.8-9.7-9.8-15-14.8
		c-10.9-10.2-22.1-19.5-33.4-27.8c-0.8-0.6-1.7-1.2-2.5-1.8L94.4,258.3c-4.4,5.3-12.4,6-17.8,1.7c-3.4-2.8-5-6.9-4.6-10.9
		c0.3-2.3,1.2-4.6,2.8-6.5l84.1-100.4C155.8,140.3,152.8,138.6,149.7,137z"/>
</g>
<g>
	<polygon class="st4" points="300.4,245.1 301.6,270.3 313.2,268.1 328,256.3 316.2,241.5 	"/>
	<polygon class="st4" points="397.3,266.3 399.2,247.4 389.6,240.9 370.2,252 381.1,270.3 	"/>
	<polygon class="st4" points="253.5,196.7 259.8,207.6 269.4,205.2 270.5,194.1 264.9,190.2 	"/>
	<polygon class="st4" points="244.6,148.7 258.3,146.7 261.3,138.8 250,127.1 238.9,137.9 	"/>
	<polygon class="st4" points="279.9,242.8 285.4,241.5 286,235.1 282.8,232.9 276.3,236.7 	"/>
	<polygon class="st4" points="193.8,243.3 197.4,237 193.5,233 187.7,235.6 187.4,239.4 	"/>
</g>
</svg>
